<?xml version="1.0" encoding="UTF-8" standalone="no"?>
<!-- Created with Inkscape (http://www.inkscape.org/) -->

<svg
   width="975"
   height="207.00037"
   viewBox="0 0 257.96875 54.768847"
   version="1.1"
   id="svg1"
   xml:space="preserve"
   inkscape:version="1.3.2 (091e20e, 2023-11-25, custom)"
   sodipodi:docname="title.svg"
   xmlns:inkscape="http://www.inkscape.org/namespaces/inkscape"
   xmlns:sodipodi="http://sodipodi.sourceforge.net/DTD/sodipodi-0.dtd"
   xmlns="http://www.w3.org/2000/svg"
   xmlns:svg="http://www.w3.org/2000/svg"><sodipodi:namedview
     id="namedview1"
     pagecolor="#ffffff"
     bordercolor="#000000"
     borderopacity="0.25"
     inkscape:showpageshadow="2"
     inkscape:pageopacity="0.0"
     inkscape:pagecheckerboard="0"
     inkscape:deskcolor="#d1d1d1"
     inkscape:document-units="px"
     inkscape:zoom="0.80087682"
     inkscape:cx="595.59721"
     inkscape:cy="-50.569574"
     inkscape:window-width="1920"
     inkscape:window-height="1137"
     inkscape:window-x="1912"
     inkscape:window-y="-8"
     inkscape:window-maximized="1"
     inkscape:current-layer="layer1" /><defs
     id="defs1" /><g
     inkscape:label="Layer 1"
     inkscape:groupmode="layer"
     id="layer1"
     transform="translate(-192.96895,-111.00333)"><g
       id="g14"
       transform="matrix(0.73031631,0,0,0.73031631,52.040578,29.935786)"><rect
         style="fill:#d50110;fill-opacity:1;stroke:none;stroke-width:0.159279;stroke-dasharray:none"
         id="rect13"
         width="353.22879"
         height="74.993324"
         x="192.96895"
         y="111.00333" /><g
         id="g13"
         transform="translate(5.7899024,-0.51361727)"><path
           id="path2"
           style="fill:#fbfbeb;fill-opacity:1;stroke:none;stroke-width:0.159279;stroke-dasharray:none"
           d="m 201.04561,124.51178 c -0.22138,0.004 -0.58787,0.0105 -0.84336,0.29765 -0.25549,0.28713 -0.31576,0.49963 -0.30954,0.65836 0.006,0.15873 0.002,46.26407 0.004,46.53153 0.002,0.26746 0.0704,0.48907 0.2775,0.71262 0.20708,0.22355 0.58834,0.30155 0.90072,0.30695 0.31238,0.005 17.03235,0.0494 18.48415,-0.005 1.45179,-0.0548 3.30387,-1.97821 4.24935,-3.31918 0.94548,-1.34098 3.73306,-6.74597 4.83174,-13.85083 1.09869,-7.10487 0.41291,-16.15781 -1.28467,-20.84886 -1.69758,-4.69106 -1.22657,-3.54521 -2.89698,-6.53604 -1.67041,-2.99081 -4.30104,-3.89408 -5.19142,-3.88865 -0.89038,0.005 -18.00024,-0.062 -18.22162,-0.0584 z m 14.24667,11.4086 c 0.32323,-0.007 0.96283,0.39002 1.3808,1.13275 0.41797,0.74273 1.00874,2.8782 1.20509,4.29793 0.30637,2.21528 0.53598,5.41298 0.54209,6.8125 0.0122,2.79906 -0.38448,6.61428 -0.87592,8.7018 -0.49144,2.08752 -0.75152,2.56711 -1.25574,3.35845 -0.50422,0.79134 -0.922,1.20569 -1.29191,1.20768 -0.36991,0.002 -3.38513,0.0104 -3.64267,-0.0109 -0.25754,-0.0208 -0.56766,-0.2242 -0.70073,-0.35089 -0.13307,-0.12669 -0.23551,-0.40594 -0.24856,-0.62735 -0.013,-0.22141 -3.5e-4,-23.4513 -0.004,-23.67039 -0.003,-0.21909 0.0186,-0.39848 0.18603,-0.59738 0.16739,-0.1989 0.31508,-0.24406 0.55656,-0.24753 0.24148,-0.003 3.82535,6e-4 4.14858,-0.007 z" /><path
           style="fill:#fbfbeb;fill-opacity:1;stroke:none;stroke-width:0.159279;stroke-dasharray:none"
           d="m 240.92019,124.87875 c 0.75665,0.0117 11.26927,-0.006 11.89321,0 0.62394,0.006 0.95412,0.4029 1.22929,0.78942 0.27517,0.38652 0.50765,0.90115 0.50514,1.27538 -0.003,0.37423 -0.0134,6.65242 -0.0146,7.13982 -0.001,0.48739 -0.22478,1.02346 -0.44445,1.32375 -0.21967,0.3003 -0.69179,0.83328 -1.2992,0.82828 -0.60741,-0.005 -7.93708,0.0132 -8.35136,0.0146 -0.41428,0.001 -1.29142,1.51641 -1.66444,2.24844 -0.37302,0.73203 -0.64749,1.6611 -0.64919,1.96499 -0.002,0.30389 0.048,0.39338 0.26427,0.69227 0.2163,0.29889 0.48146,0.38805 0.76453,0.40881 0.28307,0.0208 6.82989,-0.0177 7.21725,-0.0103 0.38736,0.007 1.04074,0.1987 1.39693,0.56513 0.35619,0.36643 0.72321,1.01948 0.71969,1.32172 -0.004,0.30225 3.9e-4,6.45892 0.0103,6.88365 0.01,0.42473 -0.13302,0.98368 -0.38107,1.27774 -0.24806,0.29406 -0.55267,0.54108 -0.84535,0.53269 -0.29268,-0.008 -8.35079,-0.024 -8.61615,-0.0232 -0.26536,7.8e-4 -0.70338,0.0228 -0.93488,0.26428 -0.23149,0.24151 -0.3574,0.59712 -0.34266,0.76756 0.0147,0.17044 0.25431,2.68385 0.58371,4.25722 0.3294,1.57336 0.78095,2.61287 1.04267,3.02684 0.26172,0.41397 0.45934,0.65331 0.69611,0.82855 0.23677,0.17524 0.82654,0.35911 1.04944,0.35866 0.2229,-4.5e-4 7.23076,0.009 7.71168,0.003 0.48093,-0.006 0.95068,0.22212 1.23373,0.50371 0.28305,0.28159 0.39842,0.71469 0.40881,1.00012 0.0104,0.28542 -0.002,8.39564 0,8.69448 0.002,0.29884 -0.10347,0.71241 -0.27741,0.96362 -0.17394,0.2512 -0.46806,0.52126 -0.77382,0.52561 -0.30576,0.004 -11.85192,0.005 -12.43945,0 -0.58753,-0.005 -1.67455,0.29556 -3.70848,-1.75204 -2.03393,-2.0476 -4.55422,-8.10965 -5.56492,-11.98622 -1.0107,-3.87657 -0.81036,-6.5538 -0.81541,-10.79115 -0.005,-4.23735 0.88278,-11.31558 2.34336,-15.14267 1.46058,-3.82709 3.39715,-6.49951 5.0381,-7.76363 1.64095,-1.26412 2.25795,-1.00278 3.0146,-0.9911 z"
           id="path4"
           sodipodi:nodetypes="zzzzzzzzzzzzzzzzzzzzzzzzzzzzzzzzzzzzzzz" /><path
           style="fill:#fbfbeb;fill-opacity:1;stroke:none;stroke-width:0.159279;stroke-dasharray:none"
           d="m 264.49903,125.12457 c 0.31252,0.005 8.09685,0.002 8.73097,0 0.63412,-0.002 1.93347,0.22743 2.62808,0.86142 0.6946,0.63398 0.77129,1.15239 0.95255,2.10909 0.18126,0.95671 0.43696,2.87376 0.43696,2.87376 0,0 0.32893,-1.86539 0.54126,-2.82641 0.21233,-0.96102 0.39531,-1.4849 0.88708,-2.05424 0.49177,-0.56934 1.63896,-0.90305 2.14623,-0.87602 0.50727,0.027 8.61375,-0.008 9.4026,0 0.78885,0.008 1.64561,0.49732 2.54045,1.51843 0.89484,1.02111 1.98646,2.25525 3.12447,8.03017 1.13801,5.77492 1.08699,6.54639 1.57683,11.50503 0.48984,4.95864 1.13453,14.20276 1.10961,18.25038 -0.0249,4.04762 -0.15702,4.67372 -0.43799,5.98612 -0.28097,1.3124 -0.35987,1.45351 -0.77383,1.97834 -0.41397,0.52483 -1.12418,1.04783 -1.56223,1.02932 -0.43805,-0.0185 -11.11521,-0.0191 -11.62184,-0.0146 -0.50662,0.004 -1.14372,-0.36975 -1.40163,-0.59861 -0.2579,-0.22887 -0.71172,-0.95343 -0.68622,-1.63524 0.0255,-0.68181 0.0208,-7.39331 0.0146,-7.78195 -0.006,-0.38865 0.085,-0.84257 0.46722,-1.21183 0.38225,-0.36926 1.0808,-0.38422 1.50383,-0.37961 0.42303,0.005 1.80768,-0.0107 2.21925,-0.0292 0.41157,-0.0185 0.76046,-0.2979 1.02202,-0.62781 0.26156,-0.32991 0.37353,-1.15217 0.365,-1.63524 -0.009,-0.48307 -0.2044,-10.76042 -0.2044,-10.76042 0,0 -0.40954,-5.7687 -0.64241,-7.50455 -0.23287,-1.73585 -0.58139,-3.45738 -0.87601,-3.97128 -0.29462,-0.5139 -0.67021,-0.89834 -1.05122,-0.90522 -0.38101,-0.007 -1.56422,-2.1e-4 -1.75204,0 -0.18782,2.1e-4 -0.40503,0.12452 -0.55481,0.29201 -0.14978,0.16749 -0.2619,0.41166 -0.26281,0.67161 -9.1e-4,0.25995 0.0139,15.0207 -0.0103,15.78971 -0.0242,0.76902 -0.22022,1.30299 -0.49618,1.61053 -0.27596,0.30754 -0.71671,0.55055 -1.115,0.54718 -0.39828,-0.003 -7.31806,-0.002 -7.67072,-0.0103 -0.35266,-0.008 -0.68612,-0.22971 -0.9085,-0.49556 -0.22238,-0.26585 -0.33227,-0.59879 -0.33038,-0.9911 0.002,-0.39231 0.0739,-14.7962 0.073,-15.28569 -9e-4,-0.4895 0.0403,-1.28064 -0.23818,-1.64562 -0.27853,-0.36498 -0.63162,-0.48971 -0.9495,-0.49983 -0.31787,-0.0101 -0.67004,-0.009 -1.05646,0.004 -0.38642,0.0129 -0.89527,0.34892 -1.26643,1.05745 -0.37117,0.70852 -1.44985,6.79338 -1.64182,9.10134 -0.19197,2.30796 -0.34366,3.84694 -0.45424,6.19438 -0.11058,2.34744 -0.16633,6.90137 -0.16521,7.2889 10e-4,0.38753 0.27795,1.10202 0.57107,1.35654 0.29313,0.25452 0.82678,0.44 1.17841,0.45175 0.35162,0.0118 1.7937,0.005 2.13015,0.0198 0.33645,0.0152 0.84712,0.15285 1.0759,0.39142 0.22879,0.23858 0.39325,0.35323 0.39229,0.61428 -9.5e-4,0.26104 10e-4,8.59627 -0.0103,8.89845 -0.0117,0.30218 -0.19302,0.82622 -0.46498,1.10669 -0.27197,0.28047 -0.84318,0.61959 -1.26803,0.60805 -0.42484,-0.0115 -11.11481,-0.006 -11.57149,-0.0104 -0.45668,-0.005 -1.6845,-0.70998 -2.00103,-1.28659 -0.31653,-0.57661 -0.75976,-1.88185 -0.73356,-2.7186 0.0262,-0.83675 -0.18848,-6.32813 0.0669,-10.95584 0.25538,-4.62771 0.89747,-11.76323 1.75203,-16.76114 0.85456,-4.99791 2.70147,-12.17975 3.15367,-13.19867 0.4522,-1.01892 1.02699,-1.86755 1.75203,-2.45285 0.72504,-0.5853 2.05277,-1.02707 2.36529,-1.02173 z"
           id="path5"
           sodipodi:nodetypes="zzzzczzzzzzzzzzzzzzzzzzzzczzzzzzzzzzzzzzzzzzzzzzzzzzzzzzzzzzzz" /><path
           id="path6"
           style="fill:#fbfbeb;fill-opacity:1;stroke:none;stroke-width:0.159279;stroke-dasharray:none"
           d="m 310.28545,124.33608 c -0.49805,-0.006 -1.86019,0.25007 -2.74454,0.709 -0.88434,0.45893 -1.16876,0.46747 -2.39468,2.03605 -1.22592,1.56858 -2.75723,4.28358 -3.91294,7.88427 -1.15571,3.6007 -2.30189,7.77325 -2.21899,13.70924 0.0829,5.936 0.21443,6.76817 0.75913,9.82628 0.5447,3.0581 2.07038,6.97009 2.94607,8.70076 0.8757,1.73067 2.17924,3.90894 3.36104,4.6731 1.18181,0.76417 3.15102,1.39146 3.95686,1.40146 0.80584,0.01 8.14063,-0.0188 8.97206,0 0.83144,0.0188 1.54625,-0.28221 2.48926,-0.87591 0.94301,-0.5937 1.93243,-1.57308 2.86132,-2.86184 0.92889,-1.28876 1.81008,-2.96283 2.45308,-4.90565 0.643,-1.94281 2.70712,-6.32473 2.86184,-15.9582 0.15472,-9.63347 -1.90718,-14.7953 -3.38739,-18.14773 -1.48021,-3.35242 -2.35213,-3.99462 -3.62096,-4.96455 -1.26884,-0.96993 -2.66348,-1.2272 -3.21221,-1.22628 -0.54873,9.2e-4 -8.6709,0.006 -9.16895,0 z m 4.40955,11.53418 c 0.86719,-0.0134 1.84848,0.73923 2.24224,1.17667 0.39376,0.43744 0.70071,1.39519 1.17409,3.46646 0.47338,2.07126 0.83492,5.29069 0.81752,7.98659 -0.0174,2.6959 -0.53954,6.40178 -0.93948,8.20622 -0.39993,1.80443 -0.58173,2.11016 -0.7276,2.52439 -0.14587,0.41422 -0.63718,1.42772 -1.00459,1.69395 -0.36741,0.26623 -1.32043,0.55376 -2.0004,0.55501 -0.67997,0.001 -1.72487,-0.31324 -1.98541,-0.52607 -0.26053,-0.21283 -0.72045,-0.6461 -1.05161,-1.63504 -0.33116,-0.98894 -0.79805,-3.15788 -1.0511,-4.96404 -0.25305,-1.80616 -0.26256,-4.08508 -0.25373,-5.85442 0.009,-1.76934 0.68271,-7.20807 1.01286,-8.45375 0.33015,-1.24568 0.87205,-2.64623 1.29139,-3.12229 0.41934,-0.47606 1.60863,-1.04024 2.47582,-1.05368 z" /><path
           style="fill:#fbfbeb;fill-opacity:1;stroke:none;stroke-width:0.159279;stroke-dasharray:none"
           d="m 345.10728,143.53555 c 1.02768,0.71102 2.05174,0.601 2.69377,0.83221 0.64203,0.23121 0.75392,0.34117 0.92711,0.58402 0.17319,0.24285 0.38909,0.76943 0.3796,1.16802 -0.009,0.39859 -0.40532,12.68352 -0.40532,12.68352 0,0 0.0596,12.3411 0.0516,12.77076 -0.008,0.42966 0.17069,1.19278 0.46457,1.51762 0.29388,0.32484 0.60558,0.39775 0.96014,0.40264 0.35456,0.005 7.28226,0.0221 7.73264,0.0103 0.45038,-0.0118 0.76764,-0.37987 1.10468,-0.91884 0.33704,-0.53897 0.38069,-1.4985 0.38199,-2.36419 0.001,-0.86569 0.41307,-41.16713 0.45424,-42.1218 0.0412,-0.95467 -0.12283,-1.587 -0.41297,-2.14738 -0.29014,-0.56038 -0.89349,-1.13818 -1.41489,-1.15327 -0.5214,-0.0151 -6.76234,-0.008 -7.16271,-0.0103 -0.40037,-0.002 -0.98296,0.17174 -1.28002,0.47949 -0.29706,0.30774 -0.4933,0.85263 -0.47968,1.5044 10e-4,0.0551 0.007,3.04815 -0.0103,5.46168 -1.06614,-0.0602 -1.84674,-0.55633 -2.1526,-1.1583 -0.30586,-0.60198 -0.40188,-0.75103 -0.54894,-1.48999 -0.14706,-0.73896 -0.0123,-2.06363 -0.16518,-2.74617 -0.15284,-0.68254 -0.17346,-0.96615 -0.53687,-1.34212 -0.36341,-0.37597 -0.89888,-0.64018 -1.54859,-0.68138 -0.64971,-0.0412 -4.63051,-0.0432 -5.28586,-0.0619 -0.65534,-0.0187 -2.30301,0.7887 -2.78747,1.52794 -0.48446,0.73924 -1.22272,2.02628 -2.1474,5.43041 -0.92467,3.40413 -2.44253,13.1839 -3.19252,19.98389 -0.74999,6.79999 -0.7349,16.46024 -0.7008,17.34516 0.0341,0.88492 0.1799,2.12488 0.6862,2.84706 0.50629,0.72219 1.29924,1.46886 1.86885,1.46882 0.56961,-4e-5 9.51857,8e-5 10.1764,4e-5 0.65783,-4e-5 1.38763,-0.1551 1.86884,-0.60744 0.48121,-0.45234 0.70872,-1.03418 0.73366,-1.85789 0.0249,-0.82371 -0.0219,-7.03486 -0.0219,-7.3111 2e-5,-0.27624 -0.30156,-0.9477 -0.6205,-1.32863 -0.31894,-0.38092 -0.79656,-0.67158 -1.30309,-0.66862 -0.50653,0.003 -1.2034,0.0111 -1.36512,0.0105 -0.16173,-5.5e-4 -0.60033,-0.16844 -0.76032,-0.34164 -0.15999,-0.17319 -0.44436,-0.56301 -0.49334,-0.86726 -0.049,-0.30425 -0.40311,-3.01861 -0.051,-7.36012 0.35212,-4.34151 0.83384,-8.36606 1.071,-9.93342 0.23716,-1.56736 0.7322,-2.64295 0.7322,-2.64295 0,0 1.53252,2.37482 2.5602,3.08584 z"
           id="path8"
           sodipodi:nodetypes="zzzzczzzzzzzzzzzzczzzzzzzzzzzzzzzzzzzzzzzczz" /><path
           id="path9"
           style="fill:#fbfbeb;fill-opacity:1;stroke:none;stroke-width:0.159279;stroke-dasharray:none"
           d="m 384.96409,124.78928 c -1.70794,-0.001 -4.6807,0.24057 -5.8601,2.18746 -1.57253,2.59585 -2.56145,6.18255 -3.33727,9.78029 -0.77582,3.59773 -1.72376,7.62548 -2.2841,14.67714 -0.56033,7.05165 -0.41923,17.11872 -0.38653,18.19733 0.0328,1.07862 0.41072,2.18131 0.74879,2.66392 0.33808,0.4826 1.45673,1.24586 1.98127,1.24386 0.52454,-0.001 8.82711,0.0498 9.30951,0.0558 0.4824,0.006 1.25109,-0.47402 1.48208,-0.90796 0.23106,-0.43394 0.29791,-1.43557 0.28991,-1.73426 -0.007,-0.29869 1.6e-4,-6.69367 -0.0103,-7.31015 -0.0105,-0.61648 -0.17931,-1.1798 -0.41186,-1.40405 -0.23255,-0.22425 -0.45953,-0.45767 -0.92088,-0.46767 -0.46134,-0.01 -0.58512,-8.2e-4 -0.84646,-0.01 -0.26135,-0.009 -0.49943,-0.10858 -0.73018,-0.39894 -0.23075,-0.29036 -0.21934,-0.63086 -0.22014,-1.0914 -10e-4,-0.46054 0.0714,-2.23184 0.0982,-2.81017 0.0268,-0.57833 0.31499,-1.32775 0.7059,-1.7632 0.39091,-0.43545 1.11891,-0.99859 1.63504,-1.00459 0.51613,-0.006 2.36702,-0.0342 2.93832,-0.0362 0.57132,-0.002 1.51346,0.35099 2.18023,0.93586 0.66677,0.58488 0.86882,1.66933 0.87282,2.11253 0.004,0.4432 0.0421,1.84846 0.031,2.26343 -0.0111,0.41498 -0.20242,0.97579 -0.35708,1.18959 -0.15466,0.2138 -0.51186,0.52755 -0.81132,0.52555 -0.29946,-0.002 -0.31923,0.008 -0.71572,0.0207 -0.3965,0.0124 -0.91219,0.17791 -1.12706,0.48266 -0.21488,0.30475 -0.42412,0.79208 -0.44132,1.46141 -0.0172,0.66933 0.003,7.05236 0,7.37629 -0.003,0.32393 0.0561,1.27961 0.35554,1.74666 0.29942,0.46705 0.99861,0.76237 1.48518,0.78187 0.48657,0.0195 9.10731,-0.0378 9.69346,-0.0724 0.58615,-0.0346 1.01252,-0.44173 1.48932,-1.10949 0.4768,-0.66776 0.88731,-2.20879 0.93431,-2.92024 0.0469,-0.71145 0.19062,-11.08485 -0.0703,-18.30069 -0.26089,-7.21584 -0.9731,-10.5628 -1.62316,-14.08286 -1.30012,-7.04011 -1.88385,-7.40478 -3.24115,-10.01593 -1.35731,-2.61113 -4.86846,-2.19391 -5.67149,-2.22001 -0.80302,-0.0261 -5.29184,-0.0146 -5.99136,-0.015 -0.17488,-10e-5 -0.60374,-0.0271 -1.17306,-0.0274 z m 3.46181,11.3037 c 0.49671,0.002 0.99077,0.007 1.18287,0.0109 0.3842,0.008 0.86202,0.90481 1.08056,1.59163 0.21855,0.68681 0.40131,1.68453 0.56947,2.83238 0.16816,1.14786 0.43822,4.58474 0.43822,4.58474 -0.8088,-0.6666 -1.85112,-1.75769 -2.59881,-1.75235 -0.74769,0.005 -0.79157,-0.0269 -1.57717,-0.0289 -0.78559,-0.002 -1.87242,1.01537 -2.67167,1.73736 0,0 0.31316,-3.3471 0.56948,-4.71599 0.25632,-1.36889 0.47771,-2.22082 0.74465,-2.83238 0.26694,-0.61156 0.66379,-1.39498 1.06557,-1.41645 0.20089,-0.0108 0.70011,-0.0125 1.19683,-0.0109 z" /><path
           id="path9-9"
           style="fill:#fbfbeb;fill-opacity:1;stroke:none;stroke-width:0.159279;stroke-dasharray:none"
           d="m 453.88857,124.8854 c -1.70795,-0.001 -4.68122,0.24057 -5.86063,2.18746 -1.57252,2.59585 -2.56092,6.18306 -3.33674,9.7808 -0.77582,3.59774 -1.72376,7.62549 -2.2841,14.67714 -0.56034,7.05165 -0.41976,17.1182 -0.38706,18.19682 0.0328,1.07862 0.41124,2.18183 0.74931,2.66444 0.33808,0.4826 1.45674,1.24533 1.98128,1.24333 0.52453,-0.001 8.82659,0.0498 9.30899,0.0558 0.4824,0.006 1.25109,-0.47401 1.48208,-0.90795 0.23106,-0.43394 0.29842,-1.43505 0.29042,-1.73374 -0.007,-0.29869 1.6e-4,-6.69367 -0.0103,-7.31015 -0.0105,-0.61648 -0.17931,-1.18032 -0.41186,-1.40457 -0.23255,-0.22425 -0.45952,-0.45715 -0.92087,-0.46715 -0.46135,-0.01 -0.58512,-0.001 -0.84646,-0.0103 -0.26135,-0.009 -0.49996,-0.10806 -0.73071,-0.39842 -0.23075,-0.29036 -0.21882,-0.63139 -0.21962,-1.09193 -10e-4,-0.46054 0.0714,-2.23183 0.0982,-2.81016 0.0268,-0.57833 0.315,-1.32723 0.7059,-1.76268 0.39091,-0.43545 1.11892,-0.99911 1.63505,-1.00511 0.51613,-0.006 2.36701,-0.0342 2.93832,-0.0362 0.57132,-0.002 1.51346,0.3515 2.18023,0.93637 0.66677,0.58488 0.86881,1.66882 0.87281,2.11202 0.004,0.4432 0.0421,1.84897 0.031,2.26394 -0.0111,0.41498 -0.20243,0.97528 -0.35709,1.18908 -0.15466,0.2138 -0.51186,0.52806 -0.81132,0.52606 -0.29946,-0.002 -0.31922,0.008 -0.71571,0.0207 -0.3965,0.0124 -0.9122,0.17791 -1.12707,0.48266 -0.21488,0.30475 -0.42411,0.79157 -0.44131,1.4609 -0.0172,0.66932 0.003,7.05236 0,7.37629 -0.003,0.32393 0.0561,1.27961 0.35553,1.74666 0.29942,0.46705 0.99861,0.76237 1.48518,0.78187 0.48657,0.0195 9.10732,-0.0377 9.69347,-0.0724 0.58614,-0.0346 1.01251,-0.44173 1.48931,-1.10949 0.4768,-0.66776 0.88731,-2.20879 0.93431,-2.92024 0.0469,-0.71145 0.19062,-11.08485 -0.0703,-18.30069 -0.26089,-7.21584 -0.9731,-10.56229 -1.62316,-14.08234 -1.30012,-7.04012 -1.88436,-7.40478 -3.24166,-10.01593 -1.35731,-2.61114 -4.86794,-2.19444 -5.67097,-2.22054 -0.80303,-0.0261 -5.29185,-0.0141 -5.99137,-0.0145 -0.17487,-1e-4 -0.60374,-0.0276 -1.17305,-0.0279 z m 3.46129,11.3037 c 0.49671,0.002 0.99129,0.007 1.18339,0.0114 0.3842,0.008 0.86201,0.9043 1.08055,1.59112 0.21855,0.68681 0.40132,1.68504 0.56947,2.8329 0.16816,1.14786 0.4377,4.58422 0.4377,4.58422 -0.80879,-0.6666 -1.85111,-1.75718 -2.5988,-1.75184 -0.74769,0.005 -0.79105,-0.0275 -1.57665,-0.0294 -0.7856,-0.002 -1.87242,1.01537 -2.67167,1.73736 0,0 0.31315,-3.34658 0.56947,-4.71547 0.25632,-1.36889 0.47772,-2.22135 0.74466,-2.83291 0.26694,-0.61155 0.66379,-1.39446 1.06557,-1.41593 0.20089,-0.0108 0.69959,-0.0131 1.19631,-0.0114 z" /><path
           style="fill:#fbfbeb;fill-opacity:1;stroke:none;stroke-width:0.159279;stroke-dasharray:none"
           d="m 403.98732,125.0749 c 0.39671,0.004 37.86582,0.0235 38.1926,0.0213 0.32679,-0.002 1.00886,0.008 1.50672,0.48689 0.49786,0.47937 0.54388,0.85487 0.54049,1.14599 -0.003,0.29111 -4.3e-4,7.47257 3e-4,7.83418 7.3e-4,0.36162 -0.087,0.86673 -0.39129,1.32734 -0.30434,0.46062 -0.74447,0.61802 -1.14525,0.61422 -0.40077,-0.004 -3.57029,-0.041 -3.88697,-0.0328 -0.31668,0.008 -0.9036,0.044 -1.10855,0.32693 -0.20495,0.28289 -0.27741,0.62417 -0.26238,0.9566 0.015,0.33244 -0.0153,32.44588 -0.007,33.36733 0.008,0.92145 -0.38423,1.58659 -0.55521,1.83234 -0.17098,0.24575 -0.85615,0.6449 -1.78856,0.59131 -0.9324,-0.0536 -6.05273,-0.0147 -6.58741,-0.0159 -0.53468,-0.001 -1.26804,-0.27248 -1.68954,-0.79696 -0.42151,-0.52449 -0.4846,-1.27036 -0.49755,-1.8882 -0.0129,-0.61785 -0.0185,-33.10257 -0.0258,-33.32523 -0.007,-0.22265 0.0201,-0.52906 -0.15331,-0.72271 -0.17342,-0.19366 -0.64576,-0.22923 -0.8395,-0.2263 -0.19374,0.003 -5.10323,-0.008 -5.35792,-0.0155 -0.25468,-0.007 -0.64971,0.009 -0.92086,0.28492 -0.27114,0.27553 -0.35873,0.59202 -0.34701,0.95214 0.0117,0.36011 -0.0543,32.46184 -0.0619,33.09794 -0.008,0.63609 -0.2995,1.48526 -0.65951,1.88938 -0.36002,0.40413 -0.81497,0.71702 -1.31287,0.73502 -0.49789,0.018 -7.15313,-0.009 -7.4915,-0.005 -0.33838,0.004 -0.79424,-0.24017 -1.14611,-0.75921 -0.35187,-0.51904 -0.50493,-1.37305 -0.48786,-2.33727 0.0171,-0.96422 0.028,-32.06451 0.0206,-32.58665 -0.007,-0.52214 0.0249,-0.78727 -0.13506,-1.03662 -0.16001,-0.24936 -0.47625,-0.37569 -0.79936,-0.36501 -0.32311,0.0107 -3.27278,0.008 -3.69355,0.0207 -0.42077,0.0125 -0.95986,-0.36751 -1.14668,-0.63887 -0.18682,-0.27136 -0.4469,-1.14681 -0.46395,-1.54708 -0.017,-0.40026 -0.0298,-6.08597 -0.0496,-6.72016 -0.0395,-0.77277 0.24743,-1.4246 0.64654,-1.80704 0.39912,-0.38244 1.7081,-0.66213 2.10481,-0.658 z"
           id="path11"
           sodipodi:nodetypes="zzzzzzzzzzzzzzzzzzzzzzzzzzzzzzzzzzczz" /><path
           style="fill:#fbfbeb;fill-opacity:1;stroke:none;stroke-width:0.159279;stroke-dasharray:none"
           d="m 495.65096,125.21217 c 0.5123,0.59478 0.64281,1.70602 0.75923,2.42365 0.11642,0.71762 0.6065,5.80618 0.5402,6.71614 -0.0663,0.90996 -0.28183,1.16242 -0.56939,1.40163 -0.28756,0.23921 -0.98045,0.5253 -1.88345,0.48911 -0.90299,-0.0362 -6.14039,-0.0695 -6.552,-0.0753 -0.41161,-0.006 -1.51529,-0.0566 -2.42718,2.00983 -0.91189,2.06648 -1.76051,7.47505 -1.81043,10.95022 -0.0499,3.47517 1.10665,8.90688 1.31402,9.6654 0.20737,0.75852 0.37574,1.39163 0.73002,1.86884 0.35428,0.47721 0.84472,0.94649 1.22642,0.96362 0.3817,0.0171 6.7574,0.0197 7.34396,0.0146 0.58655,-0.005 1.552,0.17403 2.11703,0.83222 0.56504,0.65818 0.58743,2.7058 0.5694,3.18286 -0.018,0.47707 -0.0315,3.19381 -0.0146,3.97129 0.0169,0.77748 0.0208,2.47599 -0.54021,3.05145 -0.56102,0.57546 -1.53311,0.89091 -2.24842,0.89062 -0.71531,-2.9e-4 -7.27006,-0.0358 -8.13237,-0.0292 -0.86231,0.007 -4.53658,0.24959 -6.45333,-1.43083 -1.91675,-1.68042 -3.92804,-5.79848 -5.16853,-9.9282 -1.24049,-4.12972 -1.42247,-8.14415 -1.51842,-14.6003 -0.096,-6.45615 1.80077,-12.50293 2.77405,-15.06751 0.97328,-2.56458 2.07889,-4.21717 2.97847,-5.37291 0.89958,-1.15574 1.02523,-1.2032 1.72283,-1.67904 0.69759,-0.47584 2.14738,-0.93278 2.62806,-0.92724 0.48068,0.006 9.69163,0.01 10.45381,0.0147 0.76217,0.005 1.64853,0.0696 2.16083,0.66433 z"
           id="path12"
           sodipodi:nodetypes="zzzzzzzzzzzzzzzzzzzzzzzzzzz" /><path
           style="fill:#fbfbeb;fill-opacity:1;stroke:none;stroke-width:0.159279;stroke-dasharray:none"
           d="m 498.57555,128.09983 c -0.0114,-0.80185 0.22246,-2.12603 0.54716,-2.63261 0.3247,-0.50658 0.88168,-0.9554 1.65981,-0.95539 0.77813,1e-5 3.84186,0.003 4.36162,0.0219 0.51976,0.0186 2.95708,0.0948 3.31259,0.18161 0.35551,0.0868 0.69552,0.19592 0.88671,1.65008 0.19119,1.45416 0.0593,6.46386 0.0826,10.55109 1.43752,0.12317 2.57886,-0.008 3.81988,-0.0207 0.60316,-0.0103 0.77817,-0.13381 1.25951,-1.36276 0.48134,-1.22895 0.82787,-2.62694 1.07371,-4.45996 0.24584,-1.83302 0.34774,-3.05787 0.42328,-3.7063 0.0756,-0.64843 0.14801,-1.17356 0.54716,-1.75507 0.39916,-0.58151 1.11228,-0.88961 1.9409,-0.86721 0.82863,0.0224 4.56827,0.0625 5.2446,0.0619 0.67633,-5.8e-4 1.95351,0.031 2.66358,0.81559 0.71007,0.78462 0.71975,1.42308 0.70807,1.99649 -0.0117,0.57341 -0.31315,3.38455 -1.19685,6.38981 -0.8837,3.00526 -1.71336,5.31837 -5.24103,6.92415 1.7642,1.22405 3.34868,1.60621 4.32575,3.02492 0.69022,1.0022 2.1088,4.5426 2.35386,13.83412 0.24506,9.29152 0.3592,10.27521 0.34496,10.93253 -0.0142,0.65732 -0.46449,2.74045 -0.9644,3.43844 -0.49991,0.69799 -1.91334,1.32724 -2.60744,1.34742 -0.6941,0.0202 -8.3715,0.0122 -8.94997,0 -0.57847,-0.0122 -1.58814,-0.16126 -1.92727,-0.49641 -0.33913,-0.33515 -0.61551,-1.13576 -0.6424,-1.60603 -0.0269,-0.47027 0.0388,-5.04476 -0.0146,-6.42413 -0.0534,-1.37938 0.26829,-2.35769 0.52562,-2.58426 0.55661,-0.59306 0.73263,-0.6765 1.81043,-0.68621 1.0778,-0.01 1.24609,-0.2414 1.38703,-0.45261 0.14094,-0.21121 0.25135,-1.08898 0.25218,-1.42012 8.3e-4,-0.33115 -0.0386,-4.97948 -0.22297,-6.72685 -0.18437,-1.74737 -0.14495,-2.87663 -0.67162,-3.75227 -0.52667,-0.87564 -0.80314,-1.09314 -1.44543,-1.32863 -0.64229,-0.23549 -1.73293,-0.18341 -2.40906,-0.1387 -0.67613,0.0447 -1.61447,0.18206 -2.19004,0.292 -0.68748,4.64941 -0.79988,21.97861 -0.77708,23.00219 0.0228,1.02359 -0.15105,1.46302 -0.55298,1.87762 -0.40193,0.4146 -1.56836,0.45538 -1.85474,0.45901 -0.28639,0.004 -5.10973,-0.0168 -5.86013,-0.0146 -0.75041,0.002 -1.37949,-0.0678 -1.83229,-0.61321 -0.4528,-0.54541 -0.47752,-1.38183 -0.5085,-1.8202 -0.031,-0.43837 0.34922,-42.17486 0.33781,-42.97672 z"
           id="path13"
           sodipodi:nodetypes="zzzzzzczzzzzzzzzzczzzzzzzzzzzzzzzzzczzzzzzzz" /></g></g></g></svg>
